<mxfile host="Electron" modified="2023-12-07T05:05:11.885Z" agent="Mozilla/5.0 (X11; Linux x86_64) AppleWebKit/537.36 (KHTML, like Gecko) draw.io/22.1.2 Chrome/114.0.5735.289 Electron/25.9.4 Safari/537.36" etag="nr2nB_CrmyDUJOEMX_4N" version="22.1.2" type="device">
  <diagram name="Page-1" id="lERcOtnmdMIkM4cn_xuK">
    <mxGraphModel dx="1114" dy="905" grid="1" gridSize="12" guides="1" tooltips="1" connect="1" arrows="1" fold="1" page="1" pageScale="1" pageWidth="827" pageHeight="1169" math="0" shadow="0">
      <root>
        <mxCell id="0" />
        <mxCell id="1" parent="0" />
        <mxCell id="IdQevyWfYrLNki2vx4wD-2" value="open neighborhood U" style="whiteSpace=wrap;html=1;shape=mxgraph.basic.pentagon;fillColor=default;dashed=1;dashPattern=8 8;" vertex="1" parent="1">
          <mxGeometry x="228" y="120" width="204" height="180" as="geometry" />
        </mxCell>
        <mxCell id="IdQevyWfYrLNki2vx4wD-1" value="set S" style="ellipse;whiteSpace=wrap;html=1;aspect=fixed;" vertex="1" parent="1">
          <mxGeometry x="288" y="168" width="84" height="84" as="geometry" />
        </mxCell>
      </root>
    </mxGraphModel>
  </diagram>
</mxfile>
